inDegrees=yes
name=ik_OwnShooting_orientations2.mot
DataType=double
version=3
OpenSimVersion=4.3-2021-08-27-4bc7ad9
endheader
time	pelvis_tilt	pelvis_list	pelvis_rotation	pelvis_tx	pelvis_ty	pelvis_tz	hip_flexion_r	hip_adduction_r	hip_rotation_r	knee_angle_r	knee_angle_r_beta	ankle_angle_r	subtalar_angle_r	mtp_angle_r	hip_flexion_l	hip_adduction_l	hip_rotation_l	knee_angle_l	knee_angle_l_beta	ankle_angle_l	subtalar_angle_l	mtp_angle_l	lumbar_extension	lumbar_bending	lumbar_rotation	arm_flex_r	arm_add_r	arm_rot_r	elbow_flex_r	pro_sup_r	wrist_flex_r	wrist_dev_r	arm_flex_l	arm_add_l	arm_rot_l	elbow_flex_l	pro_sup_l	wrist_flex_l	wrist_dev_l
7.28	-8.178791417927208	-1.845354238551103	-64.03097201351324	0	0.9399999999999999	0	45.00000011885492	-9.999999988573334	0	60.00014061961814	1.047200005471927	-4.999999851047217	0	0	45.00000011885492	-9.999999988573334	0	60.00014061961814	1.047200005471927	-4.999999851047217	0	0	-30.84178337479916	12.54313137255172	1.803997196957024	-89.99440237109768	-117.1976767027951	89.98980624834061	0.003889555656593972	45.00000025534055	0	0	0	-15.00000034120597	0	75.00017584613889	45.00000025534055	0	0
7.29	-8.184339413080762	-1.836024772968051	-64.01531285240844	0	0.9399999999999999	0	45.00000011885497	-9.999999988573334	0	60.00014061961816	1.047200005471927	-4.999999851047217	0	0	45.00000011885497	-9.999999988573334	0	60.00014061961816	1.047200005471927	-4.999999851047217	0	0	-32.89427535109266	11.86866271910266	16.97797036914049	-89.9943875289386	-119.992000754369	89.98719195955599	0.002378589085410175	45.00000025534055	0	0	0	-15.00000033959041	0	75.00017584613893	45.00000025534055	0	0
7.3	-8.194667421403395	-1.849708162775822	-64.00316466444079	0	0.9399999999999999	0	45.00000011885508	-9.999999988573334	0	60.00014061961821	1.047200005471928	-4.999999851047217	0	0	45.00000011885508	-9.999999988573334	0	60.00014061961821	1.047200005471928	-4.999999851047217	0	0	-30.68045306150955	16.61493303146028	10.51252466044908	-89.99388231014943	-119.9847536930389	89.98067470471548	0.002474637558269298	45.00000025534055	0	0	0	-15.00000033689907	0	75.00017584613906	45.00000025534055	0	0
7.31	-8.18979931509098	-1.841380971982893	-63.96869197525672	0	0.9399999999999999	0	45.00000011885543	-9.999999988573334	0	60.00014061961843	1.047200005471932	-4.999999851047217	0	0	45.00000011885543	-9.999999988573334	0	60.00014061961843	1.047200005471932	-4.999999851047217	0	0	-15.6494584505208	14.5285583641687	0.5425516836876129	-89.98116079962774	-82.22805719023485	89.98624644940786	0.003656826125005298	45.00000025534056	0	0	0	-15.00000032597692	0	75.00017584613944	45.00000025534056	0	0
7.32	-8.197297056608463	-1.870258028160513	-63.9758145339654	0	0.9399999999999999	0	45.0000001188557	-9.999999988573334	0	60.00014061961857	1.047200005471935	-4.999999851047217	0	0	45.0000001188557	-9.999999988573334	0	60.00014061961857	1.047200005471935	-4.999999851047217	0	0	-10.2141082304059	19.16074038000041	0.08565390289475164	-89.87040587410753	-44.86602733798311	89.99275555410537	0.004297998203354908	45.00000025534056	0	0	0	-15.00000031708343	0	75.00017584613981	45.00000025534056	0	0
7.33	-8.146199465957412	-1.849038072875909	-63.99281129683273	0	0.9399999999999999	0	45.00000011885582	-9.999999988573334	0	60.00014061961862	1.047200005471935	-4.999999851047217	0	0	45.00000011885582	-9.999999988573334	0	60.00014061961862	1.047200005471935	-4.999999851047217	0	0	-9.806180920821228	29.58547192037427	0.2111952180161385	-89.74505435080886	-2.397924960377033	89.9963631303727	0.01420758047362665	45.00000025534056	0	0	0	-15.00000031265783	0	75.00017584614	45.00000025534056	0	0
7.34	-8.127566101109519	-1.846400702620682	-63.99008381081683	0	0.9399999999999999	0	45.00000011885601	-9.999999988573334	0	60.00014061961875	1.047200005471938	-4.999999851047217	0	0	45.00000011885601	-9.999999988573334	0	60.00014061961875	1.047200005471938	-4.999999851047217	0	0	-9.754958411023152	44.6216662810405	0.6148448662856132	-89.41095919680239	8.993718535392617	89.99747555971575	31.90790421237481	45.00000025534056	0	0	0	-15.0000003053473	0	75.00017584614025	45.00000025534056	0	0
7.35	-8.120883471215006	-1.842779196832921	-63.9768188383196	0	0.9399999999999999	0	45.00000011885614	-9.999999988573334	0	60.00014061961878	1.047200005471938	-4.999999851047217	0	0	45.00000011885614	-9.999999988573334	0	60.00014061961878	1.047200005471938	-4.999999851047217	0	0	-14.449190316547	40.76425824439963	1.731472663510867	-89.97261697495041	1.486319003402189	89.99728388322512	30.23492481711552	45.00000025534056	0	0	0	-15.00000030157609	0	75.00017584614039	45.00000025534056	0	0
